/* XPM */
static char *_2b996fe6b4845eeab7857f2c8347d0b1bEIamPHDCABzXIR[] = {
/* columns rows colors chars-per-pixel */
"40 40 2 1 ",
"  c #0",
". c #CA3E49",
/* pixels */
"               ..........               ",
"            ......    ......            ",
"          ....            ....          ",
"         ..    ..........    ..         ",
"       ...  ....   ..   ....  ...       ",
"      ..  ...      ..      ...  ..      ",
"     ..  ...       ..       ...  ..     ",
"    ..  ..         ..         ..  ..    ",
"    .  ..          ..          ..  .    ",
"   .. ..           ..           .. ..   ",
"  .. ..            ..            .. ..  ",
"  .  ..            ..            ..  .  ",
" .. ..             ..             .. .. ",
" .. .                              . .. ",
" .  .                              .  . ",
".. ..                              .. ..",
".. .                                . ..",
".. .                                . ..",
".  .                                .  .",
".  ..........      ..      ..........  .",
".  ..........      ..      ..........  .",
".  .                                .  .",
".. .                                . ..",
".. .                                . ..",
".. ..                              .. ..",
" .  .                              .  . ",
" .. .                              . .. ",
" .. ..             ..             .. .. ",
"  .  ..            ..            ..  .  ",
"  .. ..            ..            .. ..  ",
"   .. ..           ..           .. ..   ",
"    .  ..          ..          ..  .    ",
"    ..  ..         ..         ..  ..    ",
"     ..  ...       ..       ...  ..     ",
"      ..  ...      ..      ...  ..      ",
"       ...  ....   ..   ....  ...       ",
"         ..    ..........    ..         ",
"          ....            ....          ",
"            ......    ......            ",
"               ..........               "
};
